# File created by Blade
# Date/Time:  Tue Jan 27 20:12:02 2015
# Frame Rate: 120.000 fps
#------------------------------------------------------
:FULLY-SPECIFIED
:DEGREES
3474
root 5.147799 32.253817 -1.881850 -1.624509 0.373785 1.884195
Spine 1.237057 6.012501 -1.131582
Head 2.885499 -9.174556 2.236559
LeftShoulder -14.752666 -5.943910 35.709887
LeftArm 8.355466 -36.258920 -54.904412
LeftForeArm -13.793426 -0.000000 31.019776
LeftHand 15.511269 -0.000000 17.154594
LeftHandThumb1 -26.253704 0.000000 33.147579
RightShoulder -18.295843 -19.249092 -38.931883
RightArm 11.465206 12.585917 43.141047
RightForeArm -10.570470 -0.000000 15.267846
RightHand 16.429514 -0.000000 5.902950
RightHandThumb1 -24.326973 -0.000000 -32.862282
LeftUpLeg 7.466691 2.510570 -4.370641
LeftLeg 4.027793 -0.000000 -0.000000
LeftFoot -17.648905 11.924989 -15.789809
LeftToeBase 19.871533 -0.000000 -0.000000
RightUpLeg 9.822807 -14.217414 4.256138
RightLeg -0.050365 -0.000000 0.000000
RightFoot -14.972317 -12.125781 14.877344
RightToeBase 8.236122 -0.000000 -0.000000
3475
root 5.133375 32.250183 -1.840342 -1.687306 0.507625 1.902521
Spine 1.143035 6.029649 -1.189870
Head 3.049372 -9.317694 2.337141
LeftShoulder -14.664640 -6.294159 35.988721
LeftArm 9.294955 -36.074431 -54.544486
LeftForeArm -13.970435 -0.000000 28.089135
LeftHand 15.983511 0.000000 17.145999
LeftHandThumb1 -26.253704 0.000000 33.147579
RightShoulder -18.254904 -19.134434 -39.208053
RightArm 11.650915 13.136294 42.724919
RightForeArm -10.739219 -0.000000 13.573167
RightHand 16.369178 -0.000000 5.520659
RightHandThumb1 -24.326973 -0.000000 -32.862282
LeftUpLeg 7.624046 2.523075 -4.347858
LeftLeg 3.971528 -0.000000 -0.000000
LeftFoot -17.632297 11.902325 -15.718739
LeftToeBase 19.843191 -0.000000 -0.000000
RightUpLeg 9.968379 -14.254718 4.245397
RightLeg -0.042097 -0.000000 0.000000
RightFoot -15.052335 -12.219875 14.908731
RightToeBase 8.243547 -0.000000 -0.000000
3476
root 5.117828 32.245991 -1.793361 -1.721242 0.615416 1.932056
Spine 0.987854 6.082548 -1.292533
Head 3.259158 -9.432685 2.440194
LeftShoulder -14.483646 -6.684190 36.363025
LeftArm 10.113167 -36.067776 -54.240630
LeftForeArm -13.750930 -0.000000 25.143122
LeftHand 16.539624 0.000000 17.062287
LeftHandThumb1 -26.253704 0.000000 33.147579
RightShoulder -18.233349 -19.087392 -39.468381
RightArm 11.897102 13.799046 42.451757
RightForeArm -10.986641 -0.000000 11.945450
RightHand 16.490817 0.000000 5.353824
RightHandThumb1 -24.326973 -0.000000 -32.862282
LeftUpLeg 7.782600 2.664330 -4.310289
LeftLeg 3.878419 -0.000000 -0.000000
LeftFoot -17.545015 11.740355 -15.596423
LeftToeBase 19.752451 -0.000000 -0.000000
RightUpLeg 10.103479 -14.221730 4.241274
RightLeg -0.065008 -0.000000 0.000000
RightFoot -15.108725 -12.368273 14.904180
RightToeBase 8.100684 -0.000000 -0.000000
3477
root 5.104838 32.241810 -1.751583 -1.760685 0.734986 1.966522
Spine 0.863050 6.117710 -1.392666
Head 3.450727 -9.564489 2.530033
LeftShoulder -14.300296 -6.859006 36.639357
LeftArm 11.160776 -36.123386 -54.021881
LeftForeArm -13.459928 -0.000000 22.167857
LeftHand 16.959363 -0.000000 16.913953
LeftHandThumb1 -26.253704 0.000000 33.147579
RightShoulder -18.199326 -19.012188 -39.726800
RightArm 12.060358 14.343475 42.171200
RightForeArm -11.066823 -0.000000 10.459602
RightHand 16.537361 -0.000000 5.215070
RightHandThumb1 -24.326973 -0.000000 -32.862282
LeftUpLeg 7.952149 2.627300 -4.318255
LeftLeg 3.742769 -0.000000 -0.000000
LeftFoot -17.506327 11.725201 -15.565843
LeftToeBase 19.732901 -0.000000 -0.000000
RightUpLeg 10.193812 -14.348319 4.207850
RightLeg 0.010484 -0.000000 -0.000000
RightFoot -15.204371 -12.422173 14.800142
RightToeBase 8.058695 -0.000000 -0.000000
3478
root 5.090258 32.238887 -1.711664 -1.805161 0.825165 1.987291
Spine 0.765716 6.137525 -1.470827
Head 3.605763 -9.646067 2.587485
LeftShoulder -14.147495 -7.301100 36.924697
LeftArm 11.899550 -35.884851 -53.541426
LeftForeArm -13.534351 -0.000000 19.174451
LeftHand 17.461305 -0.000000 17.079105
LeftHandThumb1 -26.253704 0.000000 33.147579
RightShoulder -18.157342 -19.059487 -39.973105
RightArm 12.296765 14.924691 42.007188
RightForeArm -11.098191 -0.000000 9.141676
RightHand 16.585228 0.000000 4.936308
RightHandThumb1 -24.326973 -0.000000 -32.862282
LeftUpLeg 8.131246 2.695240 -4.282775
LeftLeg 3.605132 -0.000000 -0.000000
LeftFoot -17.442149 11.626688 -15.560111
LeftToeBase 19.687469 -0.000000 -0.000000
RightUpLeg 10.290671 -14.381208 4.193762
RightLeg 0.065806 -0.000000 -0.000000
RightFoot -15.284189 -12.461881 14.823280
RightToeBase 8.026101 -0.000000 -0.000000
3479
root 5.079162 32.236161 -1.674728 -1.830481 0.914997 2.016323
Spine 0.655545 6.132636 -1.556096
Head 3.755128 -9.712161 2.639843
LeftShoulder -13.999354 -7.619217 37.212229
LeftArm 12.775316 -35.762724 -53.176142
LeftForeArm -13.378840 0.000000 16.048376
LeftHand 18.078758 -0.000000 16.920289
LeftHandThumb1 -26.253704 0.000000 33.147579
RightShoulder -18.135441 -19.076699 -40.196293
RightArm 12.527640 15.503848 41.860355
RightForeArm -11.161722 -0.000000 7.977106
RightHand 16.634301 -0.000000 5.285692
RightHandThumb1 -24.326973 -0.000000 -32.862282
LeftUpLeg 8.276053 2.767093 -4.262089
LeftLeg 3.486038 -0.000000 -0.000000
LeftFoot -17.372535 11.496427 -15.544635
LeftToeBase 19.660672 -0.000000 -0.000000
RightUpLeg 10.388153 -14.406642 4.175302
RightLeg 0.069114 -0.000000 -0.000000
RightFoot -15.355814 -12.576476 14.725988
RightToeBase 8.118799 -0.000000 -0.000000
3480
root 5.067995 32.233136 -1.640439 -1.845148 1.010503 2.039438
Spine 0.543711 6.077059 -1.645770
Head 3.897274 -9.746186 2.714161
LeftShoulder -13.898424 -7.988950 37.539590
LeftArm 13.703404 -35.584879 -52.828255
LeftForeArm -13.182814 -0.000000 12.702215
LeftHand 18.668272 -0.000000 17.274108
LeftHandThumb1 -26.253704 0.000000 33.147579
RightShoulder -18.086959 -18.920995 -40.470853
RightArm 12.620266 16.060890 41.780297
RightForeArm -11.448360 -0.000000 7.055436
RightHand 16.666537 -0.000000 5.517992
RightHandThumb1 -24.326973 -0.000000 -32.862282
LeftUpLeg 8.396892 2.772398 -4.247889
LeftLeg 3.384573 -0.000000 -0.000000
LeftFoot -17.326731 11.422956 -15.552947
LeftToeBase 19.612579 -0.000000 -0.000000
RightUpLeg 10.457683 -14.456452 4.164146
RightLeg 0.103858 -0.000000 -0.000000
RightFoot -15.442867 -12.681059 14.625426
RightToeBase 8.317804 -0.000000 -0.000000
3481
root 5.055690 32.229099 -1.605932 -1.865371 1.091061 2.062423
Spine 0.446565 6.042727 -1.738593
Head 4.020350 -9.777570 2.771800
LeftShoulder -13.800706 -8.153102 37.824807
LeftArm 14.863697 -35.262290 -52.549474
LeftForeArm -13.319477 0.000000 9.311421
LeftHand 19.066219 -0.000000 17.534287
LeftHandThumb1 -26.253704 0.000000 33.147579
RightShoulder -18.033245 -18.643955 -40.730546
RightArm 12.575905 16.513261 41.659592
RightForeArm -11.677653 -0.000000 6.422710
RightHand 16.199402 -0.000000 5.746541
RightHandThumb1 -24.326973 -0.000000 -32.862282
LeftUpLeg 8.521282 2.768731 -4.239052
LeftLeg 3.290767 -0.000000 -0.000000
LeftFoot -17.297178 11.403301 -15.528257
LeftToeBase 19.574840 -0.000000 -0.000000
RightUpLeg 10.537463 -14.483304 4.154574
RightLeg 0.125404 -0.000000 -0.000000
RightFoot -15.501653 -12.745992 14.632353
RightToeBase 8.186756 -0.000000 -0.000000
3482
root 5.042862 32.227334 -1.575113 -1.868954 1.177256 2.076165
Spine 0.351948 6.006126 -1.822368
Head 4.109102 -9.807655 2.818828
LeftShoulder -13.633209 -8.704727 38.215896
LeftArm 15.420509 -34.656656 -51.943860
LeftForeArm -13.337071 -0.000000 5.985182
LeftHand 19.495463 -0.000000 17.785555
LeftHandThumb1 -26.253704 0.000000 33.147579
RightShoulder -18.010626 -18.589047 -40.915291
RightArm 12.609910 16.891339 41.587222
RightForeArm -11.996928 -0.000000 5.902260
RightHand 16.167057 -0.000000 5.762027
RightHandThumb1 -24.326973 -0.000000 -32.862282
LeftUpLeg 8.626823 2.774583 -4.212566
LeftLeg 3.180196 -0.000000 -0.000000
LeftFoot -17.234625 11.345383 -15.524418
LeftToeBase 19.486064 -0.000000 -0.000000
RightUpLeg 10.601834 -14.563792 4.149649
RightLeg 0.133033 -0.000000 -0.000000
RightFoot -15.531706 -12.733498 14.679106
RightToeBase 8.176430 -0.000000 -0.000000
